<svg xmlns="http://www.w3.org/2000/svg" viewBox="0 0 500 500" width="32" height="32">
  <!-- Dark background -->
  <rect width="500" height="500" rx="100" ry="100" fill="#13131a"/>

  <g transform="translate(472.2413,571.30469)">
    <g transform="matrix(1.2053353,0,0,1.2053353,-1246.7763,-599.46548)">
      <!-- Flow stem lines -->
      <path fill="none" stroke="#ffffff" stroke-width="10" d="M 849.61489,153.69711 850,298.31429 Z"/>
      <path fill="none" stroke="#ffffff" stroke-width="8.29645" d="m 849.08332,152.77665 0.82965,145.18782"/>
      <!-- Left branch -->
      <path fill="none" stroke="#ffffff" stroke-width="7.49273" d="m 850,158.973 v 36.70355 8.15635 c 0,0 1.19184,39.5038 -36.01255,65.25076 -29.46481,20.39086 -52.3819,16.31269 -55.65576,65.25076 l -0.50928,5.11228"/>
      <!-- Right branch -->
      <path fill="none" stroke="#ffffff" stroke-width="7.5253" d="m 850,158.973 v 37.02335 8.22741 c 0,0 -1.19184,39.84799 36.01255,65.81929 29.46481,20.56853 52.3819,16.45482 55.65576,65.81929 l -0.49443,4.414"/>
      <!-- Drop -->
      <path fill="#ffffff" stroke="#ffffff" stroke-width="8.29645" paint-order="fill" d="m 849.41763,64.456369 25.36824,31.087262 c 6.23336,6.364119 10.06921,15.063569 10.06921,24.656839 0,19.50109 -15.85132,35.30988 -35.42373,35.30988 -19.57241,0 -35.43242,-15.80879 -35.43242,-35.30988 0,-9.49405 3.75813,-18.11351 9.87536,-24.458879 z"/>
      <!-- Center node -->
      <circle fill="#ffffff" stroke="#ffffff" stroke-width="8.29645" cx="849.427" cy="326.5929" r="30"/>
      <!-- Left node -->
      <ellipse fill="#ffffff" stroke="#ffffff" stroke-width="8.29645" cx="759.99994" cy="369.44669" rx="29.999952" ry="30.000004"/>
      <!-- Right node -->
      <ellipse fill="#ffffff" stroke="#ffffff" stroke-width="8.29645" cx="939.99963" cy="369.44669" rx="29.999952" ry="30.000004"/>
    </g>
  </g>
</svg>
